<svg xmlns="http://www.w3.org/2000/svg" xmlns:xlink="http://www.w3.org/1999/xlink" viewBox="0 0 114 114"><defs><style>.cls-1{fill:url(#Безымянный_градиент_32);}.cls-2{fill:url(#Безымянный_градиент_34);}</style><linearGradient id="Безымянный_градиент_32" x1="-3.04" y1="62.59" x2="86.35" y2="62.59" gradientUnits="userSpaceOnUse"><stop offset="0" stop-color="#ff3062"/><stop offset="0.1" stop-color="#f53069"/><stop offset="0.27" stop-color="#db2e7b"/><stop offset="0.48" stop-color="#b12c98"/><stop offset="0.73" stop-color="#7629c1"/><stop offset="1" stop-color="#2f26f2"/></linearGradient><linearGradient id="Безымянный_градиент_34" x1="11.31" y1="51.09" x2="101.73" y2="51.09" gradientUnits="userSpaceOnUse"><stop offset="0" stop-color="#ff3062"/><stop offset="1" stop-color="#433fff"/></linearGradient></defs><title>favicon</title><g id="Слой_2" data-name="Слой 2"><g id="Слой_1-2" data-name="Слой 1"><rect width="114" height="114"/><path class="cls-1" d="M30.4,86.7H22.25V39.21h7.66v6.18q3.69-6.91,10.86-6.92a10.88,10.88,0,0,1,9.42,5.13q3.53,5.13,3.52,13.11a25,25,0,0,1-3.36,13.15,10.93,10.93,0,0,1-10,5.59q-6.85,0-10-5.69Zm0-26.54a9.24,9.24,0,0,0,2.3,6.42,6.8,6.8,0,0,0,5.12,2.54,5.92,5.92,0,0,0,5.61-3.35,18.2,18.2,0,0,0,1.77-8.53,18.92,18.92,0,0,0-1.79-8.81A5.74,5.74,0,0,0,38.07,45a6.76,6.76,0,0,0-5.44,2.78A11.31,11.31,0,0,0,30.4,55.1Z"/><path class="cls-2" d="M64.64,74.71H61v-48h8V44.06q2.28-4,4.57-5.24A10.87,10.87,0,0,1,79,37.55a11.76,11.76,0,0,1,9.67,5q3.82,5,3.83,13.75a23.78,23.78,0,0,1-3.78,13.57,12.27,12.27,0,0,1-10.84,5.62q-7.11,0-11-6.57ZM69,59.56c0,3.17.68,5.5,2,7a6.88,6.88,0,0,0,5.33,2.26,6.61,6.61,0,0,0,5.31-2.6Q83.88,63.65,84,56.05q0-5.56-1.93-8.56a6.11,6.11,0,0,0-5.45-3,6.81,6.81,0,0,0-5.45,2.57Q69,49.61,69,54.29Z"/></g></g></svg>